<?xml version="1.0" encoding="UTF-8" standalone="no"?><!DOCTYPE svg PUBLIC "-//W3C//DTD SVG 1.1//EN" "http://www.w3.org/Graphics/SVG/1.1/DTD/svg11.dtd"><!-- Generated by graphviz version 2.40.1 (20161225.0304)
 --><!-- Title: %0 Pages: 1 --><svg xmlns="http://www.w3.org/2000/svg" xmlns:xlink="http://www.w3.org/1999/xlink" width="1727pt" height="476pt" viewBox="0.00 0.00 1726.93 476.00">
<g id="graph0" class="graph" transform="scale(1 1) rotate(0) translate(4 472)">
<title>%0</title>
<polygon fill="#ffffff" stroke="transparent" points="-4,4 -4,-472 1722.9258,-472 1722.9258,4 -4,4"/>
<!-- [root] aws_db_instance.default (expand) -->
<g id="node1" class="node">
<title>[root] aws_db_instance.default (expand)</title>
<polygon fill="none" stroke="#000000" points="1280.9598,-324 1126.947,-324 1126.947,-288 1280.9598,-288 1280.9598,-324"/>
<text text-anchor="middle" x="1203.9534" y="-301.8" font-family="Times,serif" font-size="14.00" fill="#000000">aws_db_instance.default</text>
</g>
<!-- [root] aws_db_subnet_group.my_db_subnet_group (expand) -->
<g id="node2" class="node">
<title>[root] aws_db_subnet_group.my_db_subnet_group (expand)</title>
<polygon fill="none" stroke="#000000" points="1339.5309,-252 1072.3759,-252 1072.3759,-216 1339.5309,-216 1339.5309,-252"/>
<text text-anchor="middle" x="1205.9534" y="-229.8" font-family="Times,serif" font-size="14.00" fill="#000000">aws_db_subnet_group.my_db_subnet_group</text>
</g>
<!-- [root] aws_db_instance.default (expand)&#45;&gt;[root] aws_db_subnet_group.my_db_subnet_group (expand) -->
<g id="edge1" class="edge">
<title>[root] aws_db_instance.default (expand)-&gt;[root] aws_db_subnet_group.my_db_subnet_group (expand)</title>
<path fill="none" stroke="#000000" d="M1204.4581,-287.8314C1204.672,-280.131 1204.9263,-270.9743 1205.164,-262.4166"/>
<polygon fill="#000000" stroke="#000000" points="1208.6628,-262.5066 1205.4419,-252.4133 1201.6655,-262.3122 1208.6628,-262.5066"/>
</g>
<!-- [root] aws_subnet.subnet1 (expand) -->
<g id="node12" class="node">
<title>[root] aws_subnet.subnet1 (expand)</title>
<polygon fill="none" stroke="#000000" points="1416.3193,-180 1287.5875,-180 1287.5875,-144 1416.3193,-144 1416.3193,-180"/>
<text text-anchor="middle" x="1351.9534" y="-157.8" font-family="Times,serif" font-size="14.00" fill="#000000">aws_subnet.subnet1</text>
</g>
<!-- [root] aws_db_subnet_group.my_db_subnet_group (expand)&#45;&gt;[root] aws_subnet.subnet1 (expand) -->
<g id="edge2" class="edge">
<title>[root] aws_db_subnet_group.my_db_subnet_group (expand)-&gt;[root] aws_subnet.subnet1 (expand)</title>
<path fill="none" stroke="#000000" d="M1242.7954,-215.8314C1262.0616,-206.3302 1285.8233,-194.6121 1306.2526,-184.5374"/>
<polygon fill="#000000" stroke="#000000" points="1307.9557,-187.6 1315.3764,-180.038 1304.8596,-181.3219 1307.9557,-187.6"/>
</g>
<!-- [root] aws_subnet.subnet2 (expand) -->
<g id="node13" class="node">
<title>[root] aws_subnet.subnet2 (expand)</title>
<polygon fill="none" stroke="#000000" points="1270.3193,-180 1141.5875,-180 1141.5875,-144 1270.3193,-144 1270.3193,-180"/>
<text text-anchor="middle" x="1205.9534" y="-157.8" font-family="Times,serif" font-size="14.00" fill="#000000">aws_subnet.subnet2</text>
</g>
<!-- [root] aws_db_subnet_group.my_db_subnet_group (expand)&#45;&gt;[root] aws_subnet.subnet2 (expand) -->
<g id="edge3" class="edge">
<title>[root] aws_db_subnet_group.my_db_subnet_group (expand)-&gt;[root] aws_subnet.subnet2 (expand)</title>
<path fill="none" stroke="#000000" d="M1205.9534,-215.8314C1205.9534,-208.131 1205.9534,-198.9743 1205.9534,-190.4166"/>
<polygon fill="#000000" stroke="#000000" points="1209.4535,-190.4132 1205.9534,-180.4133 1202.4535,-190.4133 1209.4535,-190.4132"/>
</g>
<!-- [root] aws_elb.my_elb (expand) -->
<g id="node3" class="node">
<title>[root] aws_elb.my_elb (expand)</title>
<polygon fill="none" stroke="#000000" points="505.8208,-324 398.086,-324 398.086,-288 505.8208,-288 505.8208,-324"/>
<text text-anchor="middle" x="451.9534" y="-301.8" font-family="Times,serif" font-size="14.00" fill="#000000">aws_elb.my_elb</text>
</g>
<!-- [root] aws_instance.my_instance1 (expand) -->
<g id="node4" class="node">
<title>[root] aws_instance.my_instance1 (expand)</title>
<polygon fill="none" stroke="#000000" points="497.849,-252 326.0578,-252 326.0578,-216 497.849,-216 497.849,-252"/>
<text text-anchor="middle" x="411.9534" y="-229.8" font-family="Times,serif" font-size="14.00" fill="#000000">aws_instance.my_instance1</text>
</g>
<!-- [root] aws_elb.my_elb (expand)&#45;&gt;[root] aws_instance.my_instance1 (expand) -->
<g id="edge4" class="edge">
<title>[root] aws_elb.my_elb (expand)-&gt;[root] aws_instance.my_instance1 (expand)</title>
<path fill="none" stroke="#000000" d="M441.8597,-287.8314C437.3937,-279.7925 432.0459,-270.1666 427.1155,-261.2918"/>
<polygon fill="#000000" stroke="#000000" points="430.099,-259.4551 422.183,-252.4133 423.9799,-262.8546 430.099,-259.4551"/>
</g>
<!-- [root] aws_instance.my_instance2 (expand) -->
<g id="node5" class="node">
<title>[root] aws_instance.my_instance2 (expand)</title>
<polygon fill="none" stroke="#000000" points="687.849,-252 516.0578,-252 516.0578,-216 687.849,-216 687.849,-252"/>
<text text-anchor="middle" x="601.9534" y="-229.8" font-family="Times,serif" font-size="14.00" fill="#000000">aws_instance.my_instance2</text>
</g>
<!-- [root] aws_elb.my_elb (expand)&#45;&gt;[root] aws_instance.my_instance2 (expand) -->
<g id="edge5" class="edge">
<title>[root] aws_elb.my_elb (expand)-&gt;[root] aws_instance.my_instance2 (expand)</title>
<path fill="none" stroke="#000000" d="M489.8047,-287.8314C509.688,-278.2874 534.2316,-266.5065 555.2839,-256.4013"/>
<polygon fill="#000000" stroke="#000000" points="556.8736,-259.5207 564.3743,-252.038 553.8444,-253.21 556.8736,-259.5207"/>
</g>
<!-- [root] aws_key_pair.deployer (expand) -->
<g id="node7" class="node">
<title>[root] aws_key_pair.deployer (expand)</title>
<polygon fill="none" stroke="#000000" points="575.1802,-180 428.7266,-180 428.7266,-144 575.1802,-144 575.1802,-180"/>
<text text-anchor="middle" x="501.9534" y="-157.8" font-family="Times,serif" font-size="14.00" fill="#000000">aws_key_pair.deployer</text>
</g>
<!-- [root] aws_instance.my_instance1 (expand)&#45;&gt;[root] aws_key_pair.deployer (expand) -->
<g id="edge6" class="edge">
<title>[root] aws_instance.my_instance1 (expand)-&gt;[root] aws_key_pair.deployer (expand)</title>
<path fill="none" stroke="#000000" d="M434.6642,-215.8314C445.7494,-206.9632 459.2488,-196.1637 471.2386,-186.5718"/>
<polygon fill="#000000" stroke="#000000" points="473.6276,-189.1429 479.2499,-180.1628 469.2547,-183.6768 473.6276,-189.1429"/>
</g>
<!-- [root] aws_security_group.my_sg (expand) -->
<g id="node10" class="node">
<title>[root] aws_security_group.my_sg (expand)</title>
<polygon fill="none" stroke="#000000" points="915.5311,-180 746.3757,-180 746.3757,-144 915.5311,-144 915.5311,-180"/>
<text text-anchor="middle" x="830.9534" y="-157.8" font-family="Times,serif" font-size="14.00" fill="#000000">aws_security_group.my_sg</text>
</g>
<!-- [root] aws_instance.my_instance1 (expand)&#45;&gt;[root] aws_security_group.my_sg (expand) -->
<g id="edge7" class="edge">
<title>[root] aws_instance.my_instance1 (expand)-&gt;[root] aws_security_group.my_sg (expand)</title>
<path fill="none" stroke="#000000" d="M497.8903,-217.5897C500.9477,-217.0465 503.976,-216.5149 506.9534,-216 605.8201,-198.9008 633.3669,-197.7862 736.3089,-180.0792"/>
<polygon fill="#000000" stroke="#000000" points="736.9184,-183.5258 746.1749,-178.3713 735.7244,-176.6284 736.9184,-183.5258"/>
</g>
<!-- [root] aws_subnet.my_subnet (expand) -->
<g id="node11" class="node">
<title>[root] aws_subnet.my_subnet (expand)</title>
<polygon fill="none" stroke="#000000" points="279.2096,-180 132.6972,-180 132.6972,-144 279.2096,-144 279.2096,-180"/>
<text text-anchor="middle" x="205.9534" y="-157.8" font-family="Times,serif" font-size="14.00" fill="#000000">aws_subnet.my_subnet</text>
</g>
<!-- [root] aws_instance.my_instance1 (expand)&#45;&gt;[root] aws_subnet.my_subnet (expand) -->
<g id="edge8" class="edge">
<title>[root] aws_instance.my_instance1 (expand)-&gt;[root] aws_subnet.my_subnet (expand)</title>
<path fill="none" stroke="#000000" d="M360.2368,-215.9243C332.0754,-206.0815 297.0472,-193.8386 267.4881,-183.5073"/>
<polygon fill="#000000" stroke="#000000" points="268.2861,-180.0786 257.6913,-180.0831 265.9765,-186.6866 268.2861,-180.0786"/>
</g>
<!-- [root] data.aws_ami.ubuntu (expand) -->
<g id="node15" class="node">
<title>[root] data.aws_ami.ubuntu (expand)</title>
<polygon fill="none" stroke="#000000" points="728.4254,-180 593.4814,-180 593.4814,-144 728.4254,-144 728.4254,-180"/>
<text text-anchor="middle" x="660.9534" y="-157.8" font-family="Times,serif" font-size="14.00" fill="#000000">data.aws_ami.ubuntu</text>
</g>
<!-- [root] aws_instance.my_instance1 (expand)&#45;&gt;[root] data.aws_ami.ubuntu (expand) -->
<g id="edge9" class="edge">
<title>[root] aws_instance.my_instance1 (expand)-&gt;[root] data.aws_ami.ubuntu (expand)</title>
<path fill="none" stroke="#000000" d="M474.4652,-215.9243C509.097,-205.9103 552.3201,-193.412 588.4321,-182.97"/>
<polygon fill="#000000" stroke="#000000" points="589.7817,-186.2232 598.4159,-180.0831 587.8372,-179.4987 589.7817,-186.2232"/>
</g>
<!-- [root] var.instance_type -->
<g id="node18" class="node">
<title>[root] var.instance_type</title>
<polygon fill="none" stroke="#000000" points="405.3039,-180 296.6029,-180 296.6029,-144 411.3039,-144 411.3039,-174 405.3039,-180"/>
<polyline fill="none" stroke="#000000" points="405.3039,-180 405.3039,-174 "/>
<polyline fill="none" stroke="#000000" points="411.3039,-174 405.3039,-174 "/>
<text text-anchor="middle" x="353.9534" y="-157.8" font-family="Times,serif" font-size="14.00" fill="#000000">var.instance_type</text>
</g>
<!-- [root] aws_instance.my_instance1 (expand)&#45;&gt;[root] var.instance_type -->
<g id="edge10" class="edge">
<title>[root] aws_instance.my_instance1 (expand)-&gt;[root] var.instance_type</title>
<path fill="none" stroke="#000000" d="M397.3176,-215.8314C390.6373,-207.5386 382.5966,-197.557 375.263,-188.4533"/>
<polygon fill="#000000" stroke="#000000" points="377.7853,-186.0052 368.7863,-180.4133 372.334,-190.3965 377.7853,-186.0052"/>
</g>
<!-- [root] aws_instance.my_instance2 (expand)&#45;&gt;[root] aws_key_pair.deployer (expand) -->
<g id="edge11" class="edge">
<title>[root] aws_instance.my_instance2 (expand)-&gt;[root] aws_key_pair.deployer (expand)</title>
<path fill="none" stroke="#000000" d="M576.7192,-215.8314C564.1654,-206.7927 548.8251,-195.7476 535.3143,-186.0198"/>
<polygon fill="#000000" stroke="#000000" points="537.34,-183.1655 527.1795,-180.1628 533.2498,-188.8463 537.34,-183.1655"/>
</g>
<!-- [root] aws_instance.my_instance2 (expand)&#45;&gt;[root] aws_security_group.my_sg (expand) -->
<g id="edge12" class="edge">
<title>[root] aws_instance.my_instance2 (expand)-&gt;[root] aws_security_group.my_sg (expand)</title>
<path fill="none" stroke="#000000" d="M659.4442,-215.9243C691.1582,-205.9531 730.7061,-193.5188 763.8309,-183.104"/>
<polygon fill="#000000" stroke="#000000" points="764.9492,-186.4214 773.439,-180.0831 762.8496,-179.7437 764.9492,-186.4214"/>
</g>
<!-- [root] aws_instance.my_instance2 (expand)&#45;&gt;[root] aws_subnet.my_subnet (expand) -->
<g id="edge13" class="edge">
<title>[root] aws_instance.my_instance2 (expand)-&gt;[root] aws_subnet.my_subnet (expand)</title>
<path fill="none" stroke="#000000" d="M516.0114,-217.6193C512.9554,-217.0677 509.9288,-216.5263 506.9534,-216 412.9521,-199.371 386.513,-198.6139 289.1942,-180.1883"/>
<polygon fill="#000000" stroke="#000000" points="289.71,-176.7237 279.2312,-178.2876 288.3981,-183.5996 289.71,-176.7237"/>
</g>
<!-- [root] aws_instance.my_instance2 (expand)&#45;&gt;[root] data.aws_ami.ubuntu (expand) -->
<g id="edge14" class="edge">
<title>[root] aws_instance.my_instance2 (expand)-&gt;[root] data.aws_ami.ubuntu (expand)</title>
<path fill="none" stroke="#000000" d="M616.8416,-215.8314C623.7064,-207.454 631.9835,-197.3531 639.5045,-188.1749"/>
<polygon fill="#000000" stroke="#000000" points="642.2337,-190.3665 645.8648,-180.4133 636.8193,-185.9297 642.2337,-190.3665"/>
</g>
<!-- [root] aws_instance.my_instance2 (expand)&#45;&gt;[root] var.instance_type -->
<g id="edge15" class="edge">
<title>[root] aws_instance.my_instance2 (expand)-&gt;[root] var.instance_type</title>
<path fill="none" stroke="#000000" d="M539.6926,-215.9243C503.472,-205.4086 457.8157,-192.1536 420.8334,-181.4168"/>
<polygon fill="#000000" stroke="#000000" points="421.719,-178.0294 411.1397,-178.6025 419.7673,-184.7519 421.719,-178.0294"/>
</g>
<!-- [root] aws_internet_gateway.my_igw (expand) -->
<g id="node6" class="node">
<title>[root] aws_internet_gateway.my_igw (expand)</title>
<polygon fill="none" stroke="#000000" points="1124.0101,-180 933.8967,-180 933.8967,-144 1124.0101,-144 1124.0101,-180"/>
<text text-anchor="middle" x="1028.9534" y="-157.8" font-family="Times,serif" font-size="14.00" fill="#000000">aws_internet_gateway.my_igw</text>
</g>
<!-- [root] aws_vpc.my_vpc (expand) -->
<g id="node14" class="node">
<title>[root] aws_vpc.my_vpc (expand)</title>
<polygon fill="none" stroke="#000000" points="1085.5398,-108 972.367,-108 972.367,-72 1085.5398,-72 1085.5398,-108"/>
<text text-anchor="middle" x="1028.9534" y="-85.8" font-family="Times,serif" font-size="14.00" fill="#000000">aws_vpc.my_vpc</text>
</g>
<!-- [root] aws_internet_gateway.my_igw (expand)&#45;&gt;[root] aws_vpc.my_vpc (expand) -->
<g id="edge16" class="edge">
<title>[root] aws_internet_gateway.my_igw (expand)-&gt;[root] aws_vpc.my_vpc (expand)</title>
<path fill="none" stroke="#000000" d="M1028.9534,-143.8314C1028.9534,-136.131 1028.9534,-126.9743 1028.9534,-118.4166"/>
<polygon fill="#000000" stroke="#000000" points="1032.4535,-118.4132 1028.9534,-108.4133 1025.4535,-118.4133 1032.4535,-118.4132"/>
</g>
<!-- [root] provider[&quot;registry.terraform.io/hashicorp/aws&quot;] -->
<g id="node16" class="node">
<title>[root] provider["registry.terraform.io/hashicorp/aws"]</title>
<polygon fill="none" stroke="#000000" points="660.9534,-36 385.9629,-18 660.9534,0 935.9439,-18 660.9534,-36"/>
<text text-anchor="middle" x="660.9534" y="-13.8" font-family="Times,serif" font-size="14.00" fill="#000000">provider["registry.terraform.io/hashicorp/aws"]</text>
</g>
<!-- [root] aws_key_pair.deployer (expand)&#45;&gt;[root] provider[&quot;registry.terraform.io/hashicorp/aws&quot;] -->
<g id="edge17" class="edge">
<title>[root] aws_key_pair.deployer (expand)-&gt;[root] provider["registry.terraform.io/hashicorp/aws"]</title>
<path fill="none" stroke="#000000" d="M522.0909,-143.7623C550.594,-117.9482 602.7497,-70.7128 634.3931,-42.0546"/>
<polygon fill="#000000" stroke="#000000" points="636.9066,-44.5003 641.9692,-35.1933 632.2076,-39.3119 636.9066,-44.5003"/>
</g>
<!-- [root] aws_route_table.my_route_table (expand) -->
<g id="node8" class="node">
<title>[root] aws_route_table.my_route_table (expand)</title>
<polygon fill="none" stroke="#000000" points="1054.5622,-252 855.3446,-252 855.3446,-216 1054.5622,-216 1054.5622,-252"/>
<text text-anchor="middle" x="954.9534" y="-229.8" font-family="Times,serif" font-size="14.00" fill="#000000">aws_route_table.my_route_table</text>
</g>
<!-- [root] aws_route_table.my_route_table (expand)&#45;&gt;[root] aws_internet_gateway.my_igw (expand) -->
<g id="edge18" class="edge">
<title>[root] aws_route_table.my_route_table (expand)-&gt;[root] aws_internet_gateway.my_igw (expand)</title>
<path fill="none" stroke="#000000" d="M973.6267,-215.8314C982.4783,-207.219 993.202,-196.7851 1002.8429,-187.4048"/>
<polygon fill="#000000" stroke="#000000" points="1005.5595,-189.645 1010.286,-180.1628 1000.678,-184.6279 1005.5595,-189.645"/>
</g>
<!-- [root] aws_route_table_association.my_rta (expand) -->
<g id="node9" class="node">
<title>[root] aws_route_table_association.my_rta (expand)</title>
<polygon fill="none" stroke="#000000" points="751.0566,-324 530.8502,-324 530.8502,-288 751.0566,-288 751.0566,-324"/>
<text text-anchor="middle" x="640.9534" y="-301.8" font-family="Times,serif" font-size="14.00" fill="#000000">aws_route_table_association.my_rta</text>
</g>
<!-- [root] aws_route_table_association.my_rta (expand)&#45;&gt;[root] aws_route_table.my_route_table (expand) -->
<g id="edge19" class="edge">
<title>[root] aws_route_table_association.my_rta (expand)-&gt;[root] aws_route_table.my_route_table (expand)</title>
<path fill="none" stroke="#000000" d="M719.7836,-287.9243C764.3802,-277.6983 820.2745,-264.8818 866.3805,-254.3097"/>
<polygon fill="#000000" stroke="#000000" points="867.3984,-257.6672 876.3632,-252.0207 865.8339,-250.8443 867.3984,-257.6672"/>
</g>
<!-- [root] aws_route_table_association.my_rta (expand)&#45;&gt;[root] aws_subnet.my_subnet (expand) -->
<g id="edge20" class="edge">
<title>[root] aws_route_table_association.my_rta (expand)-&gt;[root] aws_subnet.my_subnet (expand)</title>
<path fill="none" stroke="#000000" d="M530.64,-288.9849C440.6857,-274.8928 326.8973,-256.4792 316.9534,-252 282.9061,-236.6636 250.5239,-208.2495 229.6184,-187.4374"/>
<polygon fill="#000000" stroke="#000000" points="231.9611,-184.8279 222.4539,-180.152 226.9701,-189.7361 231.9611,-184.8279"/>
</g>
<!-- [root] aws_security_group.my_sg (expand)&#45;&gt;[root] aws_vpc.my_vpc (expand) -->
<g id="edge21" class="edge">
<title>[root] aws_security_group.my_sg (expand)-&gt;[root] aws_vpc.my_vpc (expand)</title>
<path fill="none" stroke="#000000" d="M880.6616,-143.9243C907.7293,-134.0815 941.3973,-121.8386 969.8083,-111.5073"/>
<polygon fill="#000000" stroke="#000000" points="971.0229,-114.7899 979.2248,-108.0831 968.6307,-108.2114 971.0229,-114.7899"/>
</g>
<!-- [root] aws_subnet.my_subnet (expand)&#45;&gt;[root] aws_vpc.my_vpc (expand) -->
<g id="edge22" class="edge">
<title>[root] aws_subnet.my_subnet (expand)-&gt;[root] aws_vpc.my_vpc (expand)</title>
<path fill="none" stroke="#000000" d="M279.1755,-145.382C282.1343,-144.8833 285.0687,-144.4195 287.9534,-144 534.6465,-108.124 831.1876,-95.6399 961.7106,-91.6758"/>
<polygon fill="#000000" stroke="#000000" points="962.0534,-95.1673 971.9452,-91.3722 961.8458,-88.1703 962.0534,-95.1673"/>
</g>
<!-- [root] var.subnet_cidr -->
<g id="node20" class="node">
<title>[root] var.subnet_cidr</title>
<polygon fill="none" stroke="#000000" points="251.1447,-108 154.7621,-108 154.7621,-72 257.1447,-72 257.1447,-102 251.1447,-108"/>
<polyline fill="none" stroke="#000000" points="251.1447,-108 251.1447,-102 "/>
<polyline fill="none" stroke="#000000" points="257.1447,-102 251.1447,-102 "/>
<text text-anchor="middle" x="205.9534" y="-85.8" font-family="Times,serif" font-size="14.00" fill="#000000">var.subnet_cidr</text>
</g>
<!-- [root] aws_subnet.my_subnet (expand)&#45;&gt;[root] var.subnet_cidr -->
<g id="edge23" class="edge">
<title>[root] aws_subnet.my_subnet (expand)-&gt;[root] var.subnet_cidr</title>
<path fill="none" stroke="#000000" d="M205.9534,-143.8314C205.9534,-136.131 205.9534,-126.9743 205.9534,-118.4166"/>
<polygon fill="#000000" stroke="#000000" points="209.4535,-118.4132 205.9534,-108.4133 202.4535,-118.4133 209.4535,-118.4132"/>
</g>
<!-- [root] aws_subnet.subnet1 (expand)&#45;&gt;[root] aws_vpc.my_vpc (expand) -->
<g id="edge24" class="edge">
<title>[root] aws_subnet.subnet1 (expand)-&gt;[root] aws_vpc.my_vpc (expand)</title>
<path fill="none" stroke="#000000" d="M1287.4911,-145.9976C1284.6074,-145.3157 1281.7513,-144.647 1278.9534,-144 1216.8992,-129.6508 1145.8985,-114.4287 1095.458,-103.8166"/>
<polygon fill="#000000" stroke="#000000" points="1096.1587,-100.3875 1085.6528,-101.7573 1094.7199,-107.238 1096.1587,-100.3875"/>
</g>
<!-- [root] aws_subnet.subnet2 (expand)&#45;&gt;[root] aws_vpc.my_vpc (expand) -->
<g id="edge25" class="edge">
<title>[root] aws_subnet.subnet2 (expand)-&gt;[root] aws_vpc.my_vpc (expand)</title>
<path fill="none" stroke="#000000" d="M1161.2888,-143.8314C1137.4057,-134.1162 1107.8244,-122.0831 1082.6906,-111.8592"/>
<polygon fill="#000000" stroke="#000000" points="1083.8786,-108.564 1073.2968,-108.038 1081.2409,-115.0481 1083.8786,-108.564"/>
</g>
<!-- [root] aws_vpc.my_vpc (expand)&#45;&gt;[root] provider[&quot;registry.terraform.io/hashicorp/aws&quot;] -->
<g id="edge26" class="edge">
<title>[root] aws_vpc.my_vpc (expand)-&gt;[root] provider["registry.terraform.io/hashicorp/aws"]</title>
<path fill="none" stroke="#000000" d="M972.2599,-78.9078C910.0947,-66.745 809.9029,-47.1423 740.0304,-33.4716"/>
<polygon fill="#000000" stroke="#000000" points="740.4355,-29.9846 729.9495,-31.4992 739.0914,-36.8543 740.4355,-29.9846"/>
</g>
<!-- [root] var.vpc_cidr -->
<g id="node21" class="node">
<title>[root] var.vpc_cidr</title>
<polygon fill="none" stroke="#000000" points="1066.3097,-36 985.5971,-36 985.5971,0 1072.3097,0 1072.3097,-30 1066.3097,-36"/>
<polyline fill="none" stroke="#000000" points="1066.3097,-36 1066.3097,-30 "/>
<polyline fill="none" stroke="#000000" points="1072.3097,-30 1066.3097,-30 "/>
<text text-anchor="middle" x="1028.9534" y="-13.8" font-family="Times,serif" font-size="14.00" fill="#000000">var.vpc_cidr</text>
</g>
<!-- [root] aws_vpc.my_vpc (expand)&#45;&gt;[root] var.vpc_cidr -->
<g id="edge27" class="edge">
<title>[root] aws_vpc.my_vpc (expand)-&gt;[root] var.vpc_cidr</title>
<path fill="none" stroke="#000000" d="M1028.9534,-71.8314C1028.9534,-64.131 1028.9534,-54.9743 1028.9534,-46.4166"/>
<polygon fill="#000000" stroke="#000000" points="1032.4535,-46.4132 1028.9534,-36.4133 1025.4535,-46.4133 1032.4535,-46.4132"/>
</g>
<!-- [root] data.aws_ami.ubuntu (expand)&#45;&gt;[root] provider[&quot;registry.terraform.io/hashicorp/aws&quot;] -->
<g id="edge28" class="edge">
<title>[root] data.aws_ami.ubuntu (expand)-&gt;[root] provider["registry.terraform.io/hashicorp/aws"]</title>
<path fill="none" stroke="#000000" d="M660.9534,-143.7623C660.9534,-119.201 660.9534,-75.2474 660.9534,-46.3541"/>
<polygon fill="#000000" stroke="#000000" points="664.4535,-46.0896 660.9534,-36.0896 657.4535,-46.0897 664.4535,-46.0896"/>
</g>
<!-- [root] var.aws_region -->
<g id="node17" class="node">
<title>[root] var.aws_region</title>
<polygon fill="none" stroke="#000000" points="95.8602,-396 .0466,-396 .0466,-360 101.8602,-360 101.8602,-390 95.8602,-396"/>
<polyline fill="none" stroke="#000000" points="95.8602,-396 95.8602,-390 "/>
<polyline fill="none" stroke="#000000" points="101.8602,-390 95.8602,-390 "/>
<text text-anchor="middle" x="50.9534" y="-373.8" font-family="Times,serif" font-size="14.00" fill="#000000">var.aws_region</text>
</g>
<!-- [root] var.pubkey -->
<g id="node19" class="node">
<title>[root] var.pubkey</title>
<polygon fill="none" stroke="#000000" points="192.0443,-396 119.8625,-396 119.8625,-360 198.0443,-360 198.0443,-390 192.0443,-396"/>
<polyline fill="none" stroke="#000000" points="192.0443,-396 192.0443,-390 "/>
<polyline fill="none" stroke="#000000" points="198.0443,-390 192.0443,-390 "/>
<text text-anchor="middle" x="158.9534" y="-373.8" font-family="Times,serif" font-size="14.00" fill="#000000">var.pubkey</text>
</g>
<!-- [root] output.load_balancer_dns_name (expand) -->
<g id="node22" class="node">
<title>[root] output.load_balancer_dns_name (expand)</title>
<ellipse fill="none" stroke="#000000" cx="450.9534" cy="-378" rx="197.3079" ry="18"/>
<text text-anchor="middle" x="450.9534" y="-373.8" font-family="Times,serif" font-size="14.00" fill="#000000">[root] output.load_balancer_dns_name (expand)</text>
</g>
<!-- [root] output.load_balancer_dns_name (expand)&#45;&gt;[root] aws_elb.my_elb (expand) -->
<g id="edge29" class="edge">
<title>[root] output.load_balancer_dns_name (expand)-&gt;[root] aws_elb.my_elb (expand)</title>
<path fill="none" stroke="#000000" d="M451.2057,-359.8314C451.3127,-352.131 451.4399,-342.9743 451.5587,-334.4166"/>
<polygon fill="#000000" stroke="#000000" points="455.0583,-334.4609 451.6977,-324.4133 448.059,-334.3637 455.0583,-334.4609"/>
</g>
<!-- [root] output.security_group_id (expand) -->
<g id="node23" class="node">
<title>[root] output.security_group_id (expand)</title>
<ellipse fill="none" stroke="#000000" cx="938.9534" cy="-306" rx="169.5564" ry="18"/>
<text text-anchor="middle" x="938.9534" y="-301.8" font-family="Times,serif" font-size="14.00" fill="#000000">[root] output.security_group_id (expand)</text>
</g>
<!-- [root] output.security_group_id (expand)&#45;&gt;[root] aws_security_group.my_sg (expand) -->
<g id="edge30" class="edge">
<title>[root] output.security_group_id (expand)-&gt;[root] aws_security_group.my_sg (expand)</title>
<path fill="none" stroke="#000000" d="M891.6917,-288.6312C874.7508,-280.1066 857.1023,-268.1248 845.9534,-252 833.5453,-234.054 830.1469,-209.3664 829.6551,-190.3864"/>
<polygon fill="#000000" stroke="#000000" points="833.1551,-190.2347 829.6485,-180.237 826.1551,-190.2393 833.1551,-190.2347"/>
</g>
<!-- [root] output.subnet_id (expand) -->
<g id="node24" class="node">
<title>[root] output.subnet_id (expand)</title>
<ellipse fill="none" stroke="#000000" cx="221.9534" cy="-306" rx="136.6289" ry="18"/>
<text text-anchor="middle" x="221.9534" y="-301.8" font-family="Times,serif" font-size="14.00" fill="#000000">[root] output.subnet_id (expand)</text>
</g>
<!-- [root] output.subnet_id (expand)&#45;&gt;[root] aws_subnet.my_subnet (expand) -->
<g id="edge31" class="edge">
<title>[root] output.subnet_id (expand)-&gt;[root] aws_subnet.my_subnet (expand)</title>
<path fill="none" stroke="#000000" d="M219.927,-287.7623C217.198,-263.201 212.3142,-219.2474 209.1039,-190.3541"/>
<polygon fill="#000000" stroke="#000000" points="212.5464,-189.6419 207.9634,-180.0896 205.5892,-190.415 212.5464,-189.6419"/>
</g>
<!-- [root] output.vpc_id (expand) -->
<g id="node25" class="node">
<title>[root] output.vpc_id (expand)</title>
<ellipse fill="none" stroke="#000000" cx="1482.9534" cy="-234" rx="125.5933" ry="18"/>
<text text-anchor="middle" x="1482.9534" y="-229.8" font-family="Times,serif" font-size="14.00" fill="#000000">[root] output.vpc_id (expand)</text>
</g>
<!-- [root] output.vpc_id (expand)&#45;&gt;[root] aws_vpc.my_vpc (expand) -->
<g id="edge32" class="edge">
<title>[root] output.vpc_id (expand)-&gt;[root] aws_vpc.my_vpc (expand)</title>
<path fill="none" stroke="#000000" d="M1476.5922,-215.7272C1468.2418,-194.6897 1451.4533,-160.8711 1424.9534,-144 1371.7442,-110.1244 1194.3693,-97.1288 1096.0372,-92.4417"/>
<polygon fill="#000000" stroke="#000000" points="1096.054,-88.9388 1085.9035,-91.9747 1095.7317,-95.9314 1096.054,-88.9388"/>
</g>
<!-- [root] provider[&quot;registry.terraform.io/hashicorp/aws&quot;] (close) -->
<g id="node26" class="node">
<title>[root] provider["registry.terraform.io/hashicorp/aws"] (close)</title>
<ellipse fill="none" stroke="#000000" cx="913.9534" cy="-378" rx="247.2168" ry="18"/>
<text text-anchor="middle" x="913.9534" y="-373.8" font-family="Times,serif" font-size="14.00" fill="#000000">[root] provider["registry.terraform.io/hashicorp/aws"] (close)</text>
</g>
<!-- [root] provider[&quot;registry.terraform.io/hashicorp/aws&quot;] (close)&#45;&gt;[root] aws_db_instance.default (expand) -->
<g id="edge33" class="edge">
<title>[root] provider["registry.terraform.io/hashicorp/aws"] (close)-&gt;[root] aws_db_instance.default (expand)</title>
<path fill="none" stroke="#000000" d="M983.7847,-360.6626C1025.3093,-350.353 1078.2022,-337.221 1121.7371,-326.4123"/>
<polygon fill="#000000" stroke="#000000" points="1122.5833,-329.8086 1131.4453,-324.002 1120.8965,-323.0148 1122.5833,-329.8086"/>
</g>
<!-- [root] provider[&quot;registry.terraform.io/hashicorp/aws&quot;] (close)&#45;&gt;[root] aws_elb.my_elb (expand) -->
<g id="edge34" class="edge">
<title>[root] provider["registry.terraform.io/hashicorp/aws"] (close)-&gt;[root] aws_elb.my_elb (expand)</title>
<path fill="none" stroke="#000000" d="M776.7998,-363.0199C701.2636,-353.7897 606.042,-340.5464 521.9534,-324 519.8854,-323.5931 517.7874,-323.162 515.6722,-322.7118"/>
<polygon fill="#000000" stroke="#000000" points="516.2195,-319.2479 505.6969,-320.4835 514.6933,-326.0795 516.2195,-319.2479"/>
</g>
<!-- [root] provider[&quot;registry.terraform.io/hashicorp/aws&quot;] (close)&#45;&gt;[root] aws_route_table_association.my_rta (expand) -->
<g id="edge35" class="edge">
<title>[root] provider["registry.terraform.io/hashicorp/aws"] (close)-&gt;[root] aws_route_table_association.my_rta (expand)</title>
<path fill="none" stroke="#000000" d="M847.8677,-360.5708C809.0895,-350.3436 759.8704,-337.3627 719.1658,-326.6274"/>
<polygon fill="#000000" stroke="#000000" points="719.8434,-323.1865 709.2815,-324.0206 718.0583,-329.9551 719.8434,-323.1865"/>
</g>
<!-- [root] root -->
<g id="node27" class="node">
<title>[root] root</title>
<ellipse fill="none" stroke="#000000" cx="681.9534" cy="-450" rx="50.9823" ry="18"/>
<text text-anchor="middle" x="681.9534" y="-445.8" font-family="Times,serif" font-size="14.00" fill="#000000">[root] root</text>
</g>
<!-- [root] root&#45;&gt;[root] var.aws_region -->
<g id="edge42" class="edge">
<title>[root] root-&gt;[root] var.aws_region</title>
<path fill="none" stroke="#000000" d="M631.0618,-448.5477C532.367,-445.0061 308.1516,-433.4211 112.0792,-396.0074"/>
<polygon fill="#000000" stroke="#000000" points="112.6567,-392.5543 102.1738,-394.0904 111.3266,-399.4268 112.6567,-392.5543"/>
</g>
<!-- [root] root&#45;&gt;[root] var.pubkey -->
<g id="edge43" class="edge">
<title>[root] root-&gt;[root] var.pubkey</title>
<path fill="none" stroke="#000000" d="M631.2836,-447.7178C544.4932,-443.0253 362.2127,-429.7423 211.9534,-396 210.6734,-395.7126 209.381,-395.4054 208.0811,-395.0813"/>
<polygon fill="#000000" stroke="#000000" points="208.6196,-391.5993 198.049,-392.3148 206.7587,-398.3474 208.6196,-391.5993"/>
</g>
<!-- [root] root&#45;&gt;[root] output.load_balancer_dns_name (expand) -->
<g id="edge37" class="edge">
<title>[root] root-&gt;[root] output.load_balancer_dns_name (expand)</title>
<path fill="none" stroke="#000000" d="M643.5491,-438.0298C608.9868,-427.2572 557.4739,-411.2012 516.4173,-398.4043"/>
<polygon fill="#000000" stroke="#000000" points="517.3472,-395.0282 506.7587,-395.3939 515.2642,-401.7111 517.3472,-395.0282"/>
</g>
<!-- [root] root&#45;&gt;[root] output.security_group_id (expand) -->
<g id="edge38" class="edge">
<title>[root] root-&gt;[root] output.security_group_id (expand)</title>
<path fill="none" stroke="#000000" d="M732.7716,-448.1407C851.8642,-443.262 1141.1314,-428.1873 1169.9534,-396 1207.4448,-354.1311 1146.5899,-331.5589 1077.9616,-319.4912"/>
<polygon fill="#000000" stroke="#000000" points="1078.2316,-315.9877 1067.7905,-317.7859 1077.074,-322.8913 1078.2316,-315.9877"/>
</g>
<!-- [root] root&#45;&gt;[root] output.subnet_id (expand) -->
<g id="edge39" class="edge">
<title>[root] root-&gt;[root] output.subnet_id (expand)</title>
<path fill="none" stroke="#000000" d="M631.6728,-446.9512C522.9779,-439.9139 273.5729,-421.1911 244.9534,-396 227.7142,-380.826 222.5373,-354.6841 221.3373,-334.4721"/>
<polygon fill="#000000" stroke="#000000" points="224.8289,-334.1369 221.0288,-324.2471 217.8321,-334.3481 224.8289,-334.1369"/>
</g>
<!-- [root] root&#45;&gt;[root] output.vpc_id (expand) -->
<g id="edge40" class="edge">
<title>[root] root-&gt;[root] output.vpc_id (expand)</title>
<path fill="none" stroke="#000000" d="M732.4156,-447.168C843.2187,-440.5385 1104.6221,-422.5372 1188.9534,-396 1291.1111,-363.8532 1398.1017,-294.3796 1450.3439,-257.7348"/>
<polygon fill="#000000" stroke="#000000" points="1452.4056,-260.5636 1458.5495,-251.9321 1448.3639,-254.8482 1452.4056,-260.5636"/>
</g>
<!-- [root] root&#45;&gt;[root] provider[&quot;registry.terraform.io/hashicorp/aws&quot;] (close) -->
<g id="edge41" class="edge">
<title>[root] root-&gt;[root] provider["registry.terraform.io/hashicorp/aws"] (close)</title>
<path fill="none" stroke="#000000" d="M720.2635,-438.1107C754.8165,-427.3873 806.3899,-411.3818 847.633,-398.5822"/>
<polygon fill="#000000" stroke="#000000" points="848.8257,-401.8768 857.3389,-395.57 846.7509,-395.1913 848.8257,-401.8768"/>
</g>
<!-- [root] output.aws_db_instance_name (expand) -->
<g id="node28" class="node">
<title>[root] output.aws_db_instance_name (expand)</title>
<ellipse fill="none" stroke="#000000" cx="1527.9534" cy="-378" rx="190.9449" ry="18"/>
<text text-anchor="middle" x="1527.9534" y="-373.8" font-family="Times,serif" font-size="14.00" fill="#000000">[root] output.aws_db_instance_name (expand)</text>
</g>
<!-- [root] root&#45;&gt;[root] output.aws_db_instance_name (expand) -->
<g id="edge36" class="edge">
<title>[root] root-&gt;[root] output.aws_db_instance_name (expand)</title>
<path fill="none" stroke="#000000" d="M731.827,-445.8589C839.6754,-436.8907 1102.6428,-414.952 1322.9534,-396 1340.9063,-394.4556 1359.7422,-392.8211 1378.4164,-391.1919"/>
<polygon fill="#000000" stroke="#000000" points="1378.8057,-394.6713 1388.4633,-390.3146 1378.1967,-387.6979 1378.8057,-394.6713"/>
</g>
</g>
</svg>